HIERARCHY
ROOT Hips
{
  OFFSET 52.7994 84.4301 3.18491
  CHANNELS 6 Xposition Yposition Zposition Zrotation Xrotation Yrotation
  JOINT spine
  {
    OFFSET 0 5.95438 0.342407
    CHANNELS 3 Zrotation Xrotation Yrotation
    JOINT spine1
    {
      OFFSET 0 8.85602 0
      CHANNELS 3 Zrotation Xrotation Yrotation
      JOINT spine2
      {
        OFFSET 0 8.48567 0
        CHANNELS 3 Zrotation Xrotation Yrotation
        JOINT Neck
        {
          OFFSET 0 21.7863 1.0387
          CHANNELS 3 Zrotation Xrotation Yrotation
          JOINT Head
          {
            OFFSET 0 6.5822 0
            CHANNELS 3 Zrotation Xrotation Yrotation
            End Site
            {
              OFFSET 0 15.9326 -5.25436
            }
          }
        }
        JOINT RightShoulder
        {
          OFFSET -3.57307 9.16386 -0.497525
          CHANNELS 3 Zrotation Xrotation Yrotation
          JOINT RightArm
          {
            OFFSET 0 12.0192 0
            CHANNELS 3 Zrotation Xrotation Yrotation
            JOINT RightArmRoll
            {
              OFFSET 0 6.06755 0
              CHANNELS 3 Zrotation Xrotation Yrotation
              JOINT RightForeArm
              {
                OFFSET 0 17.6726 0
                CHANNELS 3 Zrotation Xrotation Yrotation
                JOINT RightForeArmRoll
                {
                  OFFSET 0 6.80872 0
                  CHANNELS 3 Zrotation Xrotation Yrotation
                  JOINT RightHand
                  {
                    OFFSET 0 13.6636 0
                    CHANNELS 3 Zrotation Xrotation Yrotation
                    End Site
                    {
                      OFFSET 0 0 0
                    }
                  }
                }
              }
            }
          }
        }
        JOINT LeftShoulder
        {
          OFFSET 3.57307 9.16386 -0.497525
          CHANNELS 3 Zrotation Xrotation Yrotation
          JOINT LeftArm
          {
            OFFSET 0 12.0192 0
            CHANNELS 3 Zrotation Xrotation Yrotation
            JOINT LeftArmRoll
            {
              OFFSET 0 6.06754 0
              CHANNELS 3 Zrotation Xrotation Yrotation
              JOINT LeftForeArm
              {
                OFFSET 0 17.6726 0
                CHANNELS 3 Zrotation Xrotation Yrotation
                JOINT LeftForeArmRoll
                {
                  OFFSET 0 6.80872 0
                  CHANNELS 3 Zrotation Xrotation Yrotation
                  JOINT LeftHand
                  {
                    OFFSET 0 13.6636 0
                    CHANNELS 3 Zrotation Xrotation Yrotation
                    End Site
                    {
                      OFFSET 0 0 0
                    }
                  }
                }
              }
            }
          }
        }
      }
    }
  }
  JOINT RightUpLeg
  {
    OFFSET -5.27774 -0.967797 -0.811858
    CHANNELS 3 Zrotation Xrotation Yrotation
    JOINT RightUpLegRoll
    {
      OFFSET 0 16.0214 0
      CHANNELS 3 Zrotation Xrotation Yrotation
      JOINT RightLeg
      {
        OFFSET 0 -19.8401 0
        CHANNELS 3 Zrotation Xrotation Yrotation
        JOINT RightLegRoll
        {
          OFFSET 0 19.905 0
          CHANNELS 3 Zrotation Xrotation Yrotation
          JOINT RightFoot
          {
            OFFSET 0 16.5675 0
            CHANNELS 3 Zrotation Xrotation Yrotation
            JOINT RightToeBase
            {
              OFFSET 0 13.8496 0
              CHANNELS 3 Zrotation Xrotation Yrotation
              End Site
              {
                OFFSET 0.00587034 6.70728 -0.773117
              }
            }
          }
        }
      }
    }
  }
  JOINT LeftUpLeg
  {
    OFFSET 5.27774 -0.967797 -0.811858
    CHANNELS 3 Zrotation Xrotation Yrotation
    JOINT LeftUpLegRoll
    {
      OFFSET 0 16.0215 0
      CHANNELS 3 Zrotation Xrotation Yrotation
      JOINT LeftLeg
      {
        OFFSET 0 19.84 0
        CHANNELS 3 Zrotation Xrotation Yrotation
        JOINT LeftLegRoll
        {
          OFFSET 0 20.089 0
          CHANNELS 3 Zrotation Xrotation Yrotation
          JOINT LeftFoot
          {
            OFFSET 0 16.3835 0
            CHANNELS 3 Zrotation Xrotation Yrotation
            JOINT LeftToeBase
            {
              OFFSET 0 13.8496 0
              CHANNELS 3 Zrotation Xrotation Yrotation
              End Site
              {
                OFFSET -0.0263083 6.70728 -0.773117
              }
            }
          }
        }
      }
    }
  }
}
MOTION
Frames: 13
Frame Time: 0.00208333
53.1828 84.3448 1.84614 -0.731525 -7.6141 -1.56491 0.285174 -0.630279 0.0617931 0.570567 2.72595 0.0969947 0.570048 4.37096 0.0875318 -8.41718 13.0455 0.314844 9.32881 2.61734 -2.00177 73.5273 1.83226 -0.797824 106.915 13.4758 -6.46009 -4.17448e-015 -1.59028e-015 -2.38542e-015 -3.63792 -0.0244638 -1.99236 -6.0929e-006 -7.88335e-007 -3.01161 8.03007 -4.9514 0.697637 -70.407 -1.63768 2.09552 -111.001 14.1746 9.47687 -1.78906e-014 1.59028e-015 -1.59028e-015 3.64472 -0.0237363 1.99232 3.48962e-006 3.16873e-006 3.0116 -8.03007 -4.95136 -0.697616 179.975 -0.884458 3.09855 180 7.01533e-015 178.866 177.203 10.6506 179.904 3.03195e-006 -6.59374e-007 0.171909 -19.5754 69.1413 20.5323 8.13649 25.2327 -3.48773 -179.072 -1.89567 -0.452885 4.54188e-006 -4.6773e-006 -1.14532 -2.49516 -10.6722 0.0402692 2.93514e-006 1.70658e-006 -0.179641 20.1295 69.792 -21.1516 -8.13649 25.2327 3.48774 
53.199 84.3498 1.83994 -0.727014 -7.61107 -1.56884 0.286222 -0.630223 0.0618043 0.572188 2.72579 0.0969193 0.571669 4.3708 0.0874098 -8.45433 13.0335 0.316016 9.36436 2.61572 -2.01021 73.5058 1.82499 -0.798386 106.914 13.4756 -6.4588 1.11319e-014 7.95139e-015 3.18055e-015 -3.63792 -0.0244638 -1.99236 -6.0929e-006 -7.88335e-007 -3.01161 8.03007 -4.9514 0.697637 -70.4318 -1.64531 2.10157 -110.981 14.1586 9.45376 -2.62396e-014 0 -6.36111e-015 3.64472 -0.0237363 1.99232 3.48962e-006 3.16873e-006 3.0116 -8.03007 -4.95136 -0.697616 179.97 -0.876287 3.099 180 7.01533e-015 178.866 177.205 10.6601 179.903 3.03195e-006 -6.59374e-007 0.171909 -19.581 69.1473 20.5383 8.13649 25.2327 -3.48773 -179.081 -1.89517 -0.446474 4.54188e-006 -4.6773e-006 -1.14532 -2.4926 -10.6675 0.040912 2.93514e-006 1.70658e-006 -0.179641 20.1274 69.7899 -21.1494 -8.13649 25.2327 3.48774 
53.198 84.338 1.84221 -0.722417 -7.60799 -1.57276 0.287316 -0.63014 0.0618159 0.573844 2.72565 0.096842 0.573326 4.37066 0.0872849 -8.49241 13.0211 0.317426 9.40064 2.6146 -2.0187 73.4838 1.81797 -0.798751 106.914 13.4754 -6.45835 2.62396e-014 4.77083e-015 4.77083e-015 -3.63792 -0.0244638 -1.99236 -6.0929e-006 -7.88335e-007 -3.01161 8.03007 -4.9514 0.697637 -70.4577 -1.65303 2.10775 -110.962 14.1416 9.43031 -1.82882e-014 -6.36111e-015 -3.18055e-015 3.64472 -0.0237363 1.99232 3.48962e-006 3.16873e-006 3.0116 -8.03007 -4.95136 -0.697616 179.965 -0.868287 3.09931 180 7.01533e-015 178.866 177.208 10.6692 179.903 3.03195e-006 -6.59374e-007 0.171909 -19.5868 69.1534 20.5444 8.13649 25.2327 -3.48773 -179.09 -1.89454 -0.439911 4.54188e-006 -4.6773e-006 -1.14532 -2.48996 -10.6626 0.0415618 2.93514e-006 1.70658e-006 -0.179641 20.1252 69.7877 -21.1471 -8.13649 25.2327 3.48774 
53.1883 84.3417 1.84907 -0.717761 -7.60487 -1.57668 0.288441 -0.630039 0.0618277 0.575526 2.72552 0.0967633 0.575009 4.37053 0.087158 -8.53113 13.0085 0.319003 9.43745 2.61383 -2.02722 73.4613 1.81114 -0.798979 106.915 13.4751 -6.45848 1.07344e-014 3.18055e-015 2.38542e-015 -3.63792 -0.0244638 -1.99236 -6.0929e-006 -7.88335e-007 -3.01161 8.03007 -4.9514 0.697637 -70.4843 -1.66079 2.11402 -110.942 14.1238 9.40662 -7.55382e-015 -4.77083e-015 -0 3.64472 -0.0237363 1.99232 3.48962e-006 3.16873e-006 3.0116 -8.03007 -4.95136 -0.697616 179.96 -0.860407 3.09954 180 7.01533e-015 178.866 177.211 10.6782 179.902 3.03195e-006 -6.59374e-007 0.171909 -19.5926 69.1596 20.5507 8.13649 25.2327 -3.48773 -179.099 -1.89382 -0.433243 4.54188e-006 -4.6773e-006 -1.14532 -2.48725 -10.6577 0.0422165 2.93514e-006 1.70658e-006 -0.179641 20.1229 69.7854 -21.1446 -8.13649 25.2327 3.48774 
53.1938 84.3511 1.84979 -0.713071 -7.60173 -1.5806 0.289585 -0.629926 0.0618397 0.577222 2.72539 0.0966839 0.576706 4.3704 0.0870299 -8.57021 12.9958 0.320675 9.47454 2.61326 -2.03577 73.4386 1.80441 -0.799129 106.916 13.4748 -6.45895 -4.37326e-015 0 -7.95139e-016 -3.63792 -0.0244638 -1.99236 -6.0929e-006 -7.88335e-007 -3.01161 8.03007 -4.9514 0.697637 -70.5113 -1.66859 2.12035 -110.922 14.1057 9.3828 -4.77083e-015 -3.18055e-015 1.59028e-015 3.64472 -0.0237363 1.99232 3.48962e-006 3.16873e-006 3.0116 -8.03007 -4.95136 -0.697616 179.955 -0.852597 3.0997 180 7.01533e-015 178.866 177.214 10.687 179.902 3.03195e-006 -6.59374e-007 0.171909 -19.5984 69.1659 20.5569 8.13649 25.2327 -3.48773 -179.108 -1.89306 -0.426514 4.54188e-006 -4.6773e-006 -1.14532 -2.48451 -10.6526 0.042874 2.93514e-006 1.70658e-006 -0.179641 20.1206 69.783 -21.1421 -8.13649 25.2327 3.48774 
53.2002 84.3378 1.84644 -0.708372 -7.59859 -1.58451 0.290734 -0.629811 0.0618518 0.578922 2.72526 0.0966044 0.578407 4.37028 0.0869015 -8.60939 12.983 0.32237 9.51172 2.61273 -2.04433 73.4158 1.79771 -0.799259 106.917 13.4745 -6.4595 2.82274e-014 6.36111e-015 6.36111e-015 -3.63792 -0.0244638 -1.99236 -6.0929e-006 -7.88335e-007 -3.01161 8.03007 -4.9514 0.697637 -70.5384 -1.67639 2.12669 -110.902 14.0874 9.35895 6.36111e-015 -6.36111e-015 3.18055e-015 3.64472 -0.0237363 1.99232 3.48962e-006 3.16873e-006 3.0116 -8.03007 -4.95136 -0.697616 179.95 -0.844803 3.09985 180 7.01533e-015 178.866 177.217 10.6957 179.902 3.03195e-006 -6.59374e-007 0.171909 -19.6043 69.1722 20.5632 8.13649 25.2327 -3.48773 -179.118 -1.89228 -0.41977 4.54188e-006 -4.6773e-006 -1.14532 -2.48176 -10.6476 0.0435322 2.93514e-006 1.70658e-006 -0.179641 20.1182 69.7806 -21.1395 -8.13649 25.2327 3.48774 
53.2013 84.3438 1.85083 -0.703689 -7.59546 -1.58843 0.291873 -0.629701 0.0618638 0.580614 2.72513 0.0965252 0.5801 4.37015 0.0867737 -8.64839 12.9703 0.324018 9.54874 2.61211 -2.05287 73.3932 1.79095 -0.799429 106.917 13.4742 -6.45989 1.17283e-014 4.77083e-015 7.95139e-016 -3.63792 -0.0244638 -1.99236 -6.0929e-006 -7.88335e-007 -3.01161 8.03007 -4.9514 0.697637 -70.5653 -1.68418 2.13301 -110.882 14.0693 9.33517 -3.97569e-015 -7.95139e-015 -3.18055e-015 3.64472 -0.0237363 1.99232 3.48962e-006 3.16873e-006 3.0116 -8.03007 -4.95136 -0.697616 179.944 -0.836975 3.10003 180 7.01533e-015 178.866 177.22 10.7046 179.901 3.03195e-006 -6.59374e-007 0.171909 -19.6102 69.1784 20.5695 8.13649 25.2327 -3.48773 -179.127 -1.89153 -0.413056 4.54188e-006 -4.6773e-006 -1.14532 -2.47902 -10.6426 0.044189 2.93514e-006 1.70658e-006 -0.179641 20.1158 69.7783 -21.137 -8.13649 25.2327 3.48774 
53.2062 84.3463 1.8521 -0.699048 -7.59235 -1.59235 0.29299 -0.629604 0.0618755 0.582289 2.725 0.0964469 0.581776 4.37002 0.0866474 -8.68692 12.9578 0.325547 9.5854 2.61124 -2.06139 73.3708 1.78406 -0.799696 106.918 13.4739 -6.45985 -1.23246e-014 -3.18055e-015 -3.18055e-015 -3.63792 -0.0244638 -1.99236 -6.0929e-006 -7.88335e-007 -3.01161 8.03007 -4.9514 0.697637 -70.5917 -1.69193 2.13926 -110.863 14.0518 9.31157 -3.22031e-014 0 -9.54166e-015 3.64472 -0.0237363 1.99232 3.48962e-006 3.16873e-006 3.0116 -8.03007 -4.95136 -0.697616 179.939 -0.829061 3.10028 180 7.01533e-015 178.866 177.223 10.7136 179.901 3.03195e-006 -6.59374e-007 0.171909 -19.616 69.1846 20.5757 8.13649 25.2327 -3.48773 -179.136 -1.89084 -0.406417 4.54188e-006 -4.6773e-006 -1.14532 -2.47633 -10.6376 0.0448422 2.93514e-006 1.70658e-006 -0.179641 20.1135 69.776 -21.1346 -8.13649 25.2327 3.48774 
53.2065 84.3431 1.8549 -0.694475 -7.58929 -1.59627 0.29407 -0.62953 0.061887 0.583934 2.72485 0.0963701 0.583422 4.36987 0.0865234 -8.72471 12.9455 0.326884 9.62146 2.60997 -2.06987 73.3489 1.77697 -0.80012 106.917 13.4737 -6.45915 -5.36719e-015 3.18055e-015 -7.95139e-016 -3.63792 -0.0244638 -1.99236 -6.0929e-006 -7.88335e-007 -3.01161 8.03007 -4.9514 0.697637 -70.6172 -1.69962 2.1454 -110.843 14.0351 9.28825 3.18055e-015 -3.18055e-015 1.59028e-015 3.64472 -0.0237363 1.99232 3.48962e-006 3.16873e-006 3.0116 -8.03007 -4.95136 -0.697616 179.934 -0.821009 3.10064 180 7.01533e-015 178.866 177.225 10.7228 179.9 3.03195e-006 -6.59374e-007 0.171909 -19.6217 69.1907 20.5818 8.13649 25.2327 -3.48773 -179.145 -1.89025 -0.3999 4.54188e-006 -4.6773e-006 -1.14532 -2.47371 -10.6328 0.0454898 2.93514e-006 1.70658e-006 -0.179641 20.1114 69.7738 -21.1323 -8.13649 25.2327 3.48774 
53.2045 84.3378 1.86184 -0.689994 -7.58627 -1.60021 0.295099 -0.629485 0.0618981 0.58554 2.72468 0.0962955 0.585029 4.36971 0.0864026 -8.76149 12.9336 0.32796 9.6567 2.60816 -2.07829 73.3277 1.76959 -0.80076 106.916 13.4736 -6.45753 1.92821e-014 1.59028e-015 3.97569e-015 -3.63792 -0.0244638 -1.99236 -6.0929e-006 -7.88335e-007 -3.01161 8.03007 -4.9514 0.697637 -70.6416 -1.70723 2.15139 -110.823 14.0194 9.26531 7.15625e-015 -4.77083e-015 3.18055e-015 3.64472 -0.0237363 1.99232 3.48962e-006 3.16873e-006 3.0116 -8.03007 -4.95136 -0.697616 179.929 -0.81277 3.10114 180 7.01533e-015 178.866 177.228 10.7324 179.9 3.03195e-006 -6.59374e-007 0.171909 -19.6273 69.1966 20.5878 8.13649 25.2327 -3.48773 -179.154 -1.88979 -0.393549 4.54188e-006 -4.6773e-006 -1.14532 -2.47119 -10.6281 0.0461296 2.93514e-006 1.70658e-006 -0.179641 20.1094 69.7718 -21.1302 -8.13649 25.2327 3.48774 
53.2074 84.3373 1.85878 -0.685632 -7.58333 -1.60415 0.296064 -0.629478 0.0619087 0.587095 2.7245 0.0962234 0.586585 4.36952 0.0862859 -8.79698 12.9223 0.328701 9.69091 2.60564 -2.08663 73.3072 1.76185 -0.801674 106.913 13.4736 -6.45474 0 0 -0 -3.63792 -0.0244638 -1.99236 -6.0929e-006 -7.88335e-007 -3.01161 8.03007 -4.9514 0.697637 -70.6645 -1.71473 2.1572 -110.804 14.0053 9.24286 7.55382e-015 -9.54166e-015 1.59028e-015 3.64472 -0.0237363 1.99232 3.48962e-006 3.16873e-006 3.0116 -8.03007 -4.95136 -0.697616 179.924 -0.804289 3.10184 180 7.01533e-015 178.866 177.23 10.7425 179.9 3.03195e-006 -6.59374e-007 0.171909 -19.6327 69.2024 20.5935 8.13649 25.2327 -3.48773 -179.162 -1.88951 -0.387411 4.54188e-006 -4.6773e-006 -1.14532 -2.46878 -10.6237 0.0467595 2.93514e-006 1.70658e-006 -0.179641 20.1077 69.7701 -21.1283 -8.13649 25.2327 3.48774 
53.211 84.3431 1.86184 -0.681412 -7.58046 -1.60811 0.296951 -0.629517 0.0619187 0.588589 2.72428 0.0961546 0.588079 4.36931 0.0861742 -8.8309 12.9115 0.329038 9.72386 2.60228 -2.09488 73.2878 1.75367 -0.802921 106.908 13.4737 -6.45053 3.37934e-014 6.36111e-015 8.74653e-015 -3.63792 -0.0244638 -1.99236 -6.0929e-006 -7.88335e-007 -3.01161 8.03007 -4.9514 0.697637 -70.6856 -1.72211 2.16279 -110.784 13.9928 9.221 9.54166e-015 -7.95139e-015 1.59028e-015 3.64472 -0.0237363 1.99232 3.48962e-006 3.16873e-006 3.0116 -8.03007 -4.95136 -0.697616 179.919 -0.795517 3.10278 180 7.01533e-015 178.866 177.232 10.7531 179.9 3.03195e-006 -6.59374e-007 0.171909 -19.6378 69.2079 20.5991 8.13649 25.2327 -3.48773 -179.171 -1.88944 -0.381529 4.54188e-006 -4.6773e-006 -1.14532 -2.46652 -10.6195 0.0473774 2.93514e-006 1.70658e-006 -0.179641 20.1062 69.7686 -21.1268 -8.13649 25.2327 3.48774 
53.2075 84.3401 1.86698 -0.677362 -7.5777 -1.61208 0.297746 -0.629611 0.0619279 0.590011 2.72404 0.0960895 0.589502 4.36907 0.0860683 -8.86297 12.9014 0.328898 9.75532 2.59793 -2.10303 73.2695 1.74497 -0.80456 106.902 13.4739 -6.44464 -7.15625e-015 1.59028e-015 -1.59028e-015 -3.63792 -0.0244638 -1.99236 -6.0929e-006 -7.88335e-007 -3.01161 8.03007 -4.9514 0.697637 -70.7046 -1.72933 2.1681 -110.765 13.9824 9.19983 -1.23246e-014 -4.77083e-015 -3.18055e-015 3.64472 -0.0237363 1.99232 3.48962e-006 3.16873e-006 3.0116 -8.03007 -4.95136 -0.697616 179.913 -0.786402 3.10399 180 7.01533e-015 178.866 177.234 10.7644 179.899 3.03195e-006 -6.59374e-007 0.171909 -19.6428 69.2132 20.6044 8.13649 25.2327 -3.48773 -179.178 -1.88961 -0.37595 4.54188e-006 -4.6773e-006 -1.14532 -2.46444 -10.6156 0.0479812 2.93514e-006 1.70658e-006 -0.179641 20.105 69.7674 -21.1255 -8.13649 25.2327 3.48774 
